<svg width="32" height="32" viewBox="0 0 32 32" fill="none" xmlns="http://www.w3.org/2000/svg">
<path fill-rule="evenodd" clip-rule="evenodd" d="M15.9963 0L8.37093 7.81952C7.48909 8.72382 7 9.94728 7 11.2239C7 12.5006 7.48909 13.7241 8.36352 14.6284L8.8452 14.1344C9.00823 13.9672 9.17126 13.8 9.32688 13.6405C8.70441 13.0021 8.36352 12.1358 8.36352 11.2315C8.36352 10.3272 8.70441 9.46094 9.33429 8.82261L15.3071 2.6977V3.22204C15.3145 4.36951 15.3145 5.51698 15.2404 6.66445C15.1811 7.62954 15.0552 8.59463 14.7365 9.50653C14.4549 10.3044 14.0399 11.0264 13.5583 11.7027C13.4619 11.8395 13.3656 11.9687 13.2618 12.0978C12.3281 13.3137 11.261 14.4156 10.1939 15.5099L8.37093 17.3792L8.32647 17.4248L8.28201 17.4704L8.23014 17.5236L8.20049 17.554C7.4224 18.4355 7 19.583 7 20.7761C7 22.0527 7.48909 23.2762 8.37093 24.1805L15.9963 32L23.6217 24.1805C24.5035 23.2762 24.9926 22.0527 24.9926 20.7761C24.9926 19.4994 24.5035 18.2759 23.6217 17.3716L22.2878 16.0038L23.6291 14.636C24.5109 13.7317 25 12.5082 25 11.2315C25 9.95488 24.5109 8.73142 23.6291 7.82712L15.9963 0ZM15.3071 29.3099L9.33429 23.185C8.71182 22.5467 8.36352 21.6804 8.36352 20.7761C8.36352 19.8718 8.70441 19.0055 9.33429 18.3671L10.6682 16.9993L10.8164 17.1513C11.6686 18.0404 12.506 18.9371 13.2618 19.9174C13.8695 20.7077 14.3956 21.5512 14.7291 22.5087C15.0478 23.4206 15.1737 24.3857 15.2404 25.3507C15.3145 26.4982 15.3145 27.6457 15.3071 28.7932V29.3099ZM19.0272 14.598C19.1754 14.4384 19.331 14.2864 19.4866 14.1268L19.9979 13.6025C19.5533 13.1085 19.1235 12.607 18.7233 12.075C18.1157 11.2847 17.5895 10.4412 17.2561 9.48373C16.9374 8.57184 16.8114 7.60674 16.7522 6.64165C16.6781 5.49418 16.6781 4.34671 16.6855 3.19924V2.6749L22.6583 8.79981C23.2808 9.43814 23.6291 10.3044 23.6291 11.2087C23.6291 12.113 23.2882 12.9793 22.6583 13.6177L20.8353 15.4871C20.6278 15.6998 20.4129 15.9202 20.2054 16.133C19.3088 17.0601 18.4343 18.01 17.6414 19.0359C17.0708 19.7806 16.5669 20.5709 16.189 21.4372L15.9963 21.8855L15.8036 21.4372C15.4331 20.5709 14.9218 19.7806 14.3512 19.0359C13.5657 18.01 12.6838 17.0601 11.7872 16.133L11.6389 15.981L11.7872 15.829C12.6838 14.9019 13.5583 13.952 14.3512 12.9261C14.9218 12.1814 15.4257 11.3911 15.8036 10.5248L15.9963 10.0765L16.189 10.5248C16.5595 11.3911 17.0708 12.1814 17.6414 12.9261C18.0786 13.5113 18.5455 14.066 19.0272 14.598ZM16.6781 28.7856C16.6706 27.6381 16.6706 26.4906 16.7448 25.3431C16.804 24.3781 16.93 23.413 17.2487 22.5011C17.5821 21.5436 18.1083 20.7077 18.7159 19.9098C19.4644 18.9295 20.3018 18.0252 21.154 17.1437L21.3022 16.9917L22.6361 18.3595C23.2585 18.9979 23.6068 19.8642 23.6068 20.7685C23.6068 21.6728 23.266 22.5391 22.6361 23.1774L16.6632 29.3023L16.6781 28.7856Z" fill="#8B8B8B"/>
</svg>
