<svg width="35" height="36" viewBox="0 0 35 36" fill="none" xmlns="http://www.w3.org/2000/svg">
<path d="M11.6681 18C11.6681 14.6864 14.279 11.9995 17.5007 11.9995C20.7224 11.9995 23.3347 14.6864 23.3347 18C23.3347 21.3136 20.7224 24.0005 17.5007 24.0005C14.279 24.0005 11.6681 21.3136 11.6681 18V18ZM8.5143 18C8.5143 23.1048 12.5375 27.2428 17.5007 27.2428C22.4639 27.2428 26.4871 23.1048 26.4871 18C26.4871 12.8952 22.4639 8.75722 17.5007 8.75722C12.5375 8.75722 8.51444 12.8949 8.51444 18H8.5143ZM24.7429 8.39074C24.7427 8.81794 24.8657 9.23561 25.0964 9.59091C25.327 9.94622 25.6549 10.2232 26.0386 10.3868C26.4222 10.5505 26.8445 10.5934 27.2519 10.5103C27.6593 10.4271 28.0336 10.2215 28.3274 9.91956C28.6212 9.6176 28.8214 9.23281 28.9026 8.81384C28.9838 8.39488 28.9423 7.96056 28.7835 7.5658C28.6247 7.17105 28.3557 6.83359 28.0104 6.59611C27.6652 6.35862 27.2592 6.23177 26.8438 6.2316H26.843C26.2862 6.23187 25.7524 6.4594 25.3586 6.86424C24.9648 7.26907 24.7434 7.8181 24.7429 8.39074V8.39074ZM10.4304 32.6517C8.72417 32.5718 7.79677 32.2795 7.18047 32.0325C6.36339 31.7053 5.78041 31.3157 5.16747 30.6861C4.55452 30.0565 4.17511 29.4575 3.85841 28.6171C3.61816 27.9835 3.33395 27.0294 3.25639 25.2744C3.17155 23.3771 3.15461 22.8072 3.15461 18.0003C3.15461 13.1934 3.17295 12.6251 3.25639 10.7261C3.33409 8.9712 3.6204 8.01893 3.85841 7.38346C4.17651 6.54307 4.55536 5.94346 5.16747 5.31302C5.77957 4.68259 6.36199 4.29235 7.18047 3.96662C7.79649 3.71952 8.72417 3.4272 10.4304 3.34742C12.2751 3.26016 12.8293 3.24274 17.5007 3.24274C22.1721 3.24274 22.7268 3.26131 24.5731 3.34771C26.2793 3.42763 27.2052 3.72211 27.823 3.96691C28.6401 4.29264 29.2231 4.68374 29.836 5.31331C30.449 5.94288 30.827 6.54336 31.1451 7.38374C31.3853 8.01734 31.6695 8.97149 31.7471 10.7264C31.832 12.6253 31.8489 13.1937 31.8489 18.0006C31.8489 22.8074 31.832 23.3758 31.7471 25.2747C31.6694 27.0297 31.3838 27.9835 31.1451 28.6174C30.827 29.4578 30.4481 30.0574 29.836 30.6864C29.2239 31.3154 28.6401 31.7056 27.823 32.0328C27.207 32.2799 26.2793 32.5722 24.5731 32.652C22.7284 32.7393 22.1742 32.7567 17.5007 32.7567C12.8272 32.7567 12.2746 32.7393 10.4304 32.652V32.6517ZM10.2855 0.109008C8.42246 0.196272 7.14939 0.500112 6.0376 0.945072C4.8869 1.40458 3.91148 2.02104 2.93746 3.02126C1.96344 4.02149 1.36561 5.02488 0.918857 6.20986C0.48624 7.35408 0.190828 8.66275 0.105984 10.579C0.0197409 12.4982 0 13.1118 0 18C0 22.8882 0.0197409 23.5018 0.105984 25.421C0.190828 27.3374 0.48624 28.6459 0.918857 29.7901C1.36561 30.9737 1.96358 31.9789 2.93746 32.9787C3.91134 33.9785 4.8855 34.5941 6.0376 35.0549C7.15149 35.4999 8.42246 35.8037 10.2855 35.891C12.1525 35.9783 12.7481 36 17.5007 36C22.2533 36 22.8499 35.9797 24.7159 35.891C26.5791 35.8037 27.8513 35.4999 28.9638 35.0549C30.1145 34.5941 31.0899 33.979 32.0639 32.9787C33.038 31.9785 33.6345 30.9737 34.0825 29.7901C34.5152 28.6459 34.812 27.3372 34.8954 25.421C34.9803 23.5004 35 22.8882 35 18C35 13.1118 34.9803 12.4982 34.8954 10.579C34.8106 8.66261 34.5152 7.35336 34.0825 6.20986C33.6345 5.02632 33.0364 4.02307 32.0639 3.02126C31.0915 2.01946 30.1145 1.40458 28.9652 0.945072C27.8513 0.500112 26.5789 0.194832 24.7173 0.109008C22.851 0.0213121 22.2547 0 17.5028 0C12.7509 0 12.1532 0.0203041 10.2862 0.109008" fill="#060606"/>
</svg>
