<svg width="45" height="45" viewBox="0 0 45 45" fill="none" xmlns="http://www.w3.org/2000/svg">
<path d="M32.4 9H11.8667C10.8357 9 10 9.83574 10 10.8667V35.1333C10 36.1643 10.8357 37 11.8667 37H32.4C33.4309 37 34.2667 36.1643 34.2667 35.1333V10.8667C34.2667 9.83574 33.4309 9 32.4 9Z" stroke="#060606" stroke-linecap="round" stroke-linejoin="round"/>
<path d="M13.7333 12.7324H17.4666" stroke="#060606" stroke-linecap="round" stroke-linejoin="round"/>
<path d="M10 16.4668H34.2667" stroke="#060606" stroke-linecap="round" stroke-linejoin="round"/>
<path d="M22.1333 33.2659C25.7416 33.2659 28.6666 30.3408 28.6666 26.7326C28.6666 23.1243 25.7416 20.1992 22.1333 20.1992C18.525 20.1992 15.6 23.1243 15.6 26.7326C15.6 30.3408 18.525 33.2659 22.1333 33.2659Z" stroke="#060606" stroke-linecap="round" stroke-linejoin="round"/>
<path d="M30.0666 12.2676C30.1589 12.2676 30.2492 12.2949 30.3259 12.3462C30.4027 12.3975 30.4625 12.4704 30.4978 12.5557C30.5331 12.6409 30.5423 12.7348 30.5243 12.8253C30.5063 12.9158 30.4619 12.999 30.3966 13.0642C30.3314 13.1295 30.2482 13.1739 30.1577 13.1919C30.0672 13.21 29.9733 13.2007 29.8881 13.1654C29.8028 13.1301 29.7299 13.0703 29.6786 12.9935C29.6273 12.9168 29.6 12.8265 29.6 12.7342C29.6 12.6105 29.6491 12.4918 29.7367 12.4043C29.8242 12.3167 29.9429 12.2676 30.0666 12.2676" stroke="#060606" stroke-linecap="round" stroke-linejoin="round"/>
<path d="M19.3334 26.7336C19.3334 25.991 19.6284 25.2788 20.1535 24.7537C20.6786 24.2286 21.3908 23.9336 22.1334 23.9336" stroke="#060606" stroke-linecap="round" stroke-linejoin="round"/>
</svg>
