<svg width="45" height="45" viewBox="0 0 45 45" fill="none" xmlns="http://www.w3.org/2000/svg">
<path d="M22.8889 37.0004C25.0366 37.0004 26.7777 35.2593 26.7777 33.1115C26.7777 30.9638 25.0366 29.2227 22.8889 29.2227C20.7411 29.2227 19 30.9638 19 33.1115C19 35.2593 20.7411 37.0004 22.8889 37.0004Z" stroke="#060606" stroke-linecap="round" stroke-linejoin="round"/>
<path d="M30.7444 26.4166C28.5565 24.229 25.5892 23 22.4953 23C19.4013 23 16.4341 24.229 14.2462 26.4166" stroke="#060606" stroke-linejoin="round"/>
<path d="M35.6977 21.4669C32.1971 17.9665 27.4494 16 22.4989 16C17.5484 16 12.8007 17.9665 9.30005 21.4669" stroke="#060606" stroke-linejoin="round"/>
<path d="M39.9999 15.8909C35.2486 11.4625 28.995 9 22.4999 9C16.0048 9 9.75129 11.4625 5 15.8909" stroke="#060606" stroke-linejoin="round"/>
</svg>
