<svg width="45" height="45" viewBox="0 0 45 45" fill="none" xmlns="http://www.w3.org/2000/svg">
<path d="M18.3162 27.254V12.7334C18.3162 11.7433 17.9228 10.7937 17.2227 10.0935C16.5225 9.39334 15.5729 9 14.5827 9C13.5926 9 12.6429 9.39334 11.9428 10.0935C11.2426 10.7937 10.8493 11.7433 10.8493 12.7334V27.254C10.1566 27.8779 9.63097 28.665 9.32009 29.5439C9.00921 30.4227 8.92299 31.3653 9.06927 32.286C9.21555 33.2066 9.58969 34.0761 10.1577 34.8153C10.7256 35.5545 11.4694 36.1399 12.3213 36.5184C13.1732 36.8969 14.1062 37.0564 15.0355 36.9823C15.9647 36.9083 16.8607 36.6031 17.642 36.0945C18.4232 35.586 19.0649 34.8901 19.5087 34.0703C19.9524 33.2505 20.1842 32.3328 20.1829 31.4006C20.1812 30.617 20.014 29.8425 19.6924 29.1279C19.3707 28.4134 18.9017 27.7748 18.3162 27.254Z" stroke="#060606"/>
<path d="M14.5831 14.5996V29.5333" stroke="#060606" stroke-linejoin="round"/>
<path d="M14.5831 33.2666C15.6141 33.2666 16.4499 32.4309 16.4499 31.3999C16.4499 30.369 15.6141 29.5332 14.5831 29.5332C13.5522 29.5332 12.7164 30.369 12.7164 31.3999C12.7164 32.4309 13.5522 33.2666 14.5831 33.2666Z" stroke="#060606" stroke-linejoin="round"/>
<path d="M26.7168 26.734C29.2942 26.734 31.3836 24.6446 31.3836 22.0672C31.3836 19.4898 29.2942 17.4004 26.7168 17.4004C24.1394 17.4004 22.05 19.4898 22.05 22.0672C22.05 24.6446 24.1394 26.734 26.7168 26.734Z" stroke="#060606" stroke-linejoin="round"/>
<path d="M27.6501 13.6675V11.8008" stroke="#060606" stroke-linejoin="round"/>
<path d="M32.656 16.127L33.9764 14.8066" stroke="#060606" stroke-linejoin="round"/>
<path d="M35.1171 22.0664H36.9838" stroke="#060606" stroke-linejoin="round"/>
<path d="M32.656 28.0078L33.9764 29.3282" stroke="#060606" stroke-linejoin="round"/>
<path d="M27.6501 30.4668V32.3335" stroke="#060606" stroke-linejoin="round"/>
</svg>
