<svg width="45" height="45" viewBox="0 0 45 45" fill="none" xmlns="http://www.w3.org/2000/svg">
<path d="M38.2 34.5996C38.2 34.9709 38.0525 35.327 37.7899 35.5896C37.5274 35.8521 37.1713 35.9996 36.8 35.9996H7.4C7.0287 35.9996 6.6726 35.8521 6.41005 35.5896C6.1475 35.327 6 34.9709 6 34.5996V14.9996C6 14.6283 6.1475 14.2722 6.41005 14.0097C6.6726 13.7471 7.0287 13.5996 7.4 13.5996H36.8C37.1713 13.5996 37.5274 13.7471 37.7899 14.0097C38.0525 14.2722 38.2 14.6283 38.2 14.9996V34.5996Z" stroke="black" stroke-linecap="round" stroke-linejoin="round"/>
<path d="M16.5 13.6L17.2 8.7C17.2 8.51435 17.2737 8.3363 17.405 8.20503C17.5363 8.07375 17.7143 8 17.9 8H26.3C26.4856 8 26.6637 8.07375 26.795 8.20503C26.9262 8.3363 27 8.51435 27 8.7L27.7 13.6" stroke="black" stroke-linecap="round" stroke-linejoin="round"/>
<path d="M11.6 19.2031H32.6" stroke="black" stroke-linecap="round" stroke-linejoin="round"/>
<path d="M11.6 24.8027H32.6" stroke="black" stroke-linecap="round" stroke-linejoin="round"/>
<path d="M11.6 30.4023H32.6" stroke="black" stroke-linecap="round" stroke-linejoin="round"/>
</svg>
