<svg width="30" height="24" viewBox="0 0 30 24" fill="none" xmlns="http://www.w3.org/2000/svg">
<path d="M27.0002 11H3.00002C1.89601 11 1 11.896 1 13V19.0001H29.0002V13C29.0002 11.896 28.1042 11 27.0002 11Z" stroke="black" stroke-miterlimit="10"/>
<path d="M29.0002 17V23" stroke="black" stroke-miterlimit="10" stroke-linecap="square"/>
<path d="M1 17V23" stroke="black" stroke-miterlimit="10" stroke-linecap="square"/>
<path d="M25.0002 1H5.00002C3.89601 1 3 1.89601 3 3.00002V11.0001H27.0002V3.00002C27.0002 1.89601 26.1042 1 25.0002 1Z" stroke="black" stroke-miterlimit="10"/>
<path d="M9.00008 7H13.0001C14.1041 7 15.0001 7.89601 15.0001 9.00002V11H7.00006V9.00002C7.00006 7.89601 7.89607 7 9.00008 7Z" stroke="black" stroke-miterlimit="10" stroke-linejoin="round"/>
<path d="M17.0001 7H21.0002C22.1042 7 23.0002 7.89601 23.0002 9.00002V11H15.0001V9.00002C15.0001 7.89601 15.8961 7 17.0001 7Z" stroke="black" stroke-miterlimit="10" stroke-linejoin="round"/>
</svg>
