<svg width="20" height="26" viewBox="0 0 20 26" fill="none" xmlns="http://www.w3.org/2000/svg">
<path d="M4.33337 1V26" stroke="#111111"/>
<path d="M7.66667 1V8.5C7.66403 9.38324 7.31199 10.2296 6.68744 10.8541C6.06289 11.4787 5.21658 11.8307 4.33333 11.8333C3.45009 11.8307 2.60378 11.4787 1.97922 10.8541C1.35467 10.2296 1.00264 9.38324 1 8.5V1" stroke="#111111"/>
<path d="M14.333 17.6666H17.6663C17.8874 17.675 18.1079 17.6377 18.3139 17.5569C18.52 17.4761 18.7071 17.3536 18.8635 17.1972C19.02 17.0407 19.1425 16.8536 19.2233 16.6475C19.304 16.4415 19.3414 16.221 19.333 15.9999C19.1541 11.2132 18.9607 6.19991 15.8741 1.38102C15.7751 1.23026 15.6303 1.11534 15.4609 1.05327C15.2916 0.991205 15.1068 0.985276 14.9339 1.03636C14.7609 1.08745 14.609 1.19284 14.5006 1.33695C14.3922 1.48106 14.333 1.65624 14.3318 1.83658V25.9999" stroke="#111111"/>
</svg>
