<svg width="45" height="45" viewBox="0 0 45 45" fill="none" xmlns="http://www.w3.org/2000/svg">
<path d="M18.5486 25.6055L25.5196 18.6345" stroke="#060606" stroke-linecap="round" stroke-linejoin="round"/>
<path d="M22.7308 32.5758C22.361 32.9455 21.8595 33.1533 21.3366 33.1533C20.8136 33.1533 20.3121 32.9455 19.9424 32.5758L11.5772 24.2106C11.2074 23.8408 10.9997 23.3393 10.9997 22.8164C10.9997 22.2935 11.2074 21.792 11.5772 21.4222C11.9469 21.0524 12.4485 20.8447 12.9714 20.8447C13.4943 20.8447 13.9958 21.0524 14.3656 21.4222L22.7308 29.7874C23.1005 30.1572 23.3082 30.6587 23.3082 31.1816C23.3082 31.7045 23.1005 32.206 22.7308 32.5758Z" stroke="#060606" stroke-linecap="round" stroke-linejoin="round"/>
<path d="M12.9707 31.182L11.5765 32.5762" stroke="#060606" stroke-linecap="round" stroke-linejoin="round"/>
<path d="M11.5772 27.0003C11.2074 27.3701 10.9997 27.8716 10.9997 28.3945C10.9997 28.9175 11.2074 29.419 11.5772 29.7887L14.3656 32.5771C14.7353 32.9469 15.2368 33.1546 15.7598 33.1546C16.2827 33.1546 16.7842 32.9469 17.154 32.5771C17.5237 32.2074 17.7315 31.7059 17.7315 31.1829C17.7315 30.66 17.5237 30.1585 17.154 29.7887L14.3656 27.0003C13.9958 26.6306 13.4943 26.4228 12.9714 26.4228C12.4485 26.4228 11.9469 26.6306 11.5772 27.0003Z" stroke="#060606" stroke-linecap="round" stroke-linejoin="round"/>
<path d="M32.4899 22.818C32.8597 22.4482 33.0674 21.9467 33.0674 21.4238C33.0674 20.9008 32.8597 20.3993 32.4899 20.0296L24.1247 11.6644C23.755 11.2946 23.2535 11.0869 22.7305 11.0869C22.2076 11.0869 21.7061 11.2946 21.3363 11.6644C20.9666 12.0342 20.7588 12.5357 20.7588 13.0586C20.7588 13.5815 20.9666 14.083 21.3363 14.4528L29.7015 22.818C30.0713 23.1877 30.5728 23.3955 31.0957 23.3955C31.6186 23.3955 32.1201 23.1877 32.4899 22.818Z" stroke="#060606" stroke-linecap="round" stroke-linejoin="round"/>
<path d="M31.0961 13.0586L32.4903 11.6644" stroke="#060606" stroke-linecap="round" stroke-linejoin="round"/>
<path d="M26.9137 11.6644C27.2835 11.2946 27.785 11.0869 28.3079 11.0869C28.8308 11.0869 29.3324 11.2946 29.7021 11.6644L32.4905 14.4528C32.8603 14.8226 33.068 15.3241 33.068 15.847C33.068 16.3699 32.8603 16.8714 32.4905 17.2412C32.1208 17.6109 31.6192 17.8187 31.0963 17.8187C30.5734 17.8187 30.0719 17.6109 29.7021 17.2412L26.9137 14.4528C26.544 14.083 26.3362 13.5815 26.3362 13.0586C26.3362 12.5357 26.544 12.0342 26.9137 11.6644Z" stroke="#060606" stroke-linecap="round" stroke-linejoin="round"/>
</svg>
