<svg width="27" height="27" viewBox="0 0 27 27" fill="none" xmlns="http://www.w3.org/2000/svg">
<path d="M6.00003 16H26.0001L25.2624 20.4289C25.003 21.9858 24.1997 23.4001 22.9954 24.4202C21.7911 25.4404 20.264 26.0002 18.6857 26.0001H8.31449C6.73619 26.0002 5.20902 25.4404 4.00473 24.4202C2.80045 23.4001 1.99715 21.9858 1.73778 20.4289L1 16H6.00003Z" stroke="#111111" stroke-linecap="round"/>
<path d="M17.6666 4.33335C17.6666 3.44929 18.0178 2.60144 18.6429 1.97632C19.2681 1.35119 20.1159 1 21 1C21.884 1 22.7319 1.35119 23.357 1.97632C23.9821 2.60144 24.3333 3.44929 24.3333 4.33335V16.0001" stroke="#111111" stroke-linecap="round"/>
<path d="M14.3331 7.66734C14.3331 6.78328 14.6843 5.93543 15.3094 5.3103C15.9346 4.68518 16.7824 4.33398 17.6665 4.33398C18.5505 4.33398 19.3984 4.68518 20.0235 5.3103C20.6486 5.93543 20.9998 6.78328 20.9998 7.66734H14.3331Z" stroke="#111111"/>
</svg>
