<svg width="45" height="45" viewBox="0 0 45 45" fill="none" xmlns="http://www.w3.org/2000/svg">
<path d="M18.9376 37H26.4043" stroke="#060606"/>
<path d="M22.671 37.0005V26.1875" stroke="#060606"/>
<path d="M31.2416 16.1767C31.4731 17.6832 31.3036 19.2241 30.75 20.6442C30.1963 22.0642 29.2783 23.3133 28.0882 24.2656C26.5506 25.4957 24.6402 26.1659 22.6711 26.1659C20.7021 26.1659 18.7916 25.4957 17.2541 24.2656C16.064 23.3133 15.1459 22.0642 14.5923 20.6442C14.0387 19.2241 13.8691 17.6832 14.1006 16.1767L15.08 9.79147C15.114 9.57075 15.2259 9.36951 15.3956 9.22429C15.5652 9.07907 15.7813 8.99949 16.0046 9H29.3376C29.5605 9.00009 29.776 9.07993 29.9451 9.2251C30.1143 9.37027 30.2259 9.57117 30.2598 9.79147L31.2416 16.1767Z" stroke="#060606"/>
<path d="M14.0608 16.4668H31.2814" stroke="#060606"/>
</svg>
