<svg width="45" height="45" viewBox="0 0 45 45" fill="none" xmlns="http://www.w3.org/2000/svg">
<path d="M22.336 35.8922C20.2016 34.1655 18.462 32.0015 17.2342 29.546C16.0064 27.0904 15.319 24.4003 15.2183 21.6568C15.2857 19.183 15.8415 16.747 16.8537 14.4888C17.8659 12.2306 19.3146 10.1948 21.1165 8.49849C21.4425 8.17897 21.8807 8 22.3372 8C22.7936 8 23.2319 8.17897 23.5579 8.49849C25.3588 10.1953 26.8068 12.2313 27.8186 14.4894C28.8304 16.7475 29.3861 19.1833 29.4537 21.6568C29.3529 24.4003 28.6655 27.0904 27.4378 29.546C26.21 32.0015 24.4704 34.1655 22.336 35.8922V35.8922Z" stroke="#111111" stroke-linecap="round" stroke-linejoin="round"/>
<path d="M29.2663 19.1665C32.6654 16.8546 36.6863 15.6293 40.797 15.6527C41.2657 15.6533 41.715 15.8392 42.0471 16.1699C42.3791 16.5006 42.5669 16.9492 42.5694 17.4179C42.6396 19.8851 42.2223 22.3419 41.3412 24.6475C40.4602 26.9531 39.1328 29.0621 37.4351 30.8537C35.4238 32.7223 33.0355 34.1383 30.431 35.0064C27.8265 35.8744 25.0662 36.1743 22.3361 35.886" stroke="#111111" stroke-linecap="round" stroke-linejoin="round"/>
<path d="M15.4107 19.1915C11.9927 16.842 7.93242 15.6057 3.78507 15.6516C3.31581 15.6516 2.8656 15.8372 2.53268 16.1679C2.19975 16.4986 2.01115 16.9476 2.00801 17.4168C1.93586 19.8847 2.35162 22.3426 3.23145 24.6494C4.11128 26.9563 5.43787 29.0668 7.13514 30.8598C9.16526 32.7315 11.5713 34.1485 14.1927 35.0163C16.814 35.884 19.5903 36.1826 22.3362 35.892" stroke="#111111" stroke-linecap="round" stroke-linejoin="round"/>
</svg>
