<svg width="30" height="23" viewBox="0 0 30 23" fill="none" xmlns="http://www.w3.org/2000/svg">
<path d="M23.0001 17.211C24.9185 17.211 26.4737 15.6558 26.4737 13.7374C26.4737 11.8189 24.9185 10.2637 23.0001 10.2637C21.0816 10.2637 19.5264 11.8189 19.5264 13.7374C19.5264 15.6558 21.0816 17.211 23.0001 17.211Z" stroke="black" stroke-miterlimit="10"/>
<path d="M20.3948 17.8293C21.1775 17.4333 22.0621 17.2109 23 17.2109C26.1981 17.2109 28.7895 19.8023 28.7895 23.0004" stroke="black" stroke-miterlimit="10"/>
<path d="M11.4211 12.579C14.6185 12.579 17.2106 9.98692 17.2106 6.78948C17.2106 3.59204 14.6185 1 11.4211 1C8.22363 1 5.63159 3.59204 5.63159 6.78948C5.63159 9.98692 8.22363 12.579 11.4211 12.579Z" stroke="black" stroke-miterlimit="10"/>
<path d="M1 22.9992C1 17.2444 5.66632 12.5781 11.4211 12.5781C17.1758 12.5781 21.8421 17.2444 21.8421 22.9992" stroke="black" stroke-miterlimit="10"/>
</svg>
