<svg width="124" height="43" viewBox="0 0 124 43" fill="none" xmlns="http://www.w3.org/2000/svg">
<path d="M55.3221 28.8677H52.9821V21.0437H43.7181V28.8677H41.3781V11.6717H43.7181V19.3397H52.9821V11.6717H55.3221V28.8677Z" fill="#060606"/>
<path d="M77.4107 20.2757C77.4107 21.5637 77.2067 22.7477 76.7987 23.8277C76.3907 24.8997 75.8147 25.8237 75.0707 26.5997C74.3267 27.3757 73.4307 27.9797 72.3827 28.4117C71.3427 28.8357 70.1907 29.0477 68.9267 29.0477C67.6627 29.0477 66.5107 28.8357 65.4707 28.4117C64.4307 27.9797 63.5387 27.3757 62.7947 26.5997C62.0507 25.8237 61.4747 24.8997 61.0667 23.8277C60.6587 22.7477 60.4547 21.5637 60.4547 20.2757C60.4547 18.9877 60.6587 17.8077 61.0667 16.7357C61.4747 15.6557 62.0507 14.7277 62.7947 13.9517C63.5387 13.1677 64.4307 12.5597 65.4707 12.1277C66.5107 11.6957 67.6627 11.4797 68.9267 11.4797C70.1907 11.4797 71.3427 11.6957 72.3827 12.1277C73.4307 12.5597 74.3267 13.1677 75.0707 13.9517C75.8147 14.7277 76.3907 15.6557 76.7987 16.7357C77.2067 17.8077 77.4107 18.9877 77.4107 20.2757ZM75.0227 20.2757C75.0227 19.2197 74.8787 18.2717 74.5907 17.4317C74.3027 16.5917 73.8947 15.8837 73.3667 15.3077C72.8387 14.7237 72.1987 14.2757 71.4467 13.9637C70.6947 13.6517 69.8547 13.4957 68.9267 13.4957C68.0067 13.4957 67.1707 13.6517 66.4187 13.9637C65.6667 14.2757 65.0227 14.7237 64.4867 15.3077C63.9587 15.8837 63.5507 16.5917 63.2627 17.4317C62.9747 18.2717 62.8307 19.2197 62.8307 20.2757C62.8307 21.3317 62.9747 22.2797 63.2627 23.1197C63.5507 23.9517 63.9587 24.6597 64.4867 25.2437C65.0227 25.8197 65.6667 26.2637 66.4187 26.5757C67.1707 26.8797 68.0067 27.0317 68.9267 27.0317C69.8547 27.0317 70.6947 26.8797 71.4467 26.5757C72.1987 26.2637 72.8387 25.8197 73.3667 25.2437C73.8947 24.6597 74.3027 23.9517 74.5907 23.1197C74.8787 22.2797 75.0227 21.3317 75.0227 20.2757Z" fill="#060606"/>
<path d="M93.0472 11.6717V13.6277H87.4912V28.8677H85.1632V13.6277H79.5832V11.6717H93.0472Z" fill="#060606"/>
<path d="M108.007 11.6717V13.5677H99.7515V19.2797H106.435V21.1037H99.7515V26.9717H108.007V28.8677H97.4115V11.6717H108.007Z" fill="#060606"/>
<path d="M115.605 26.9117H123.045V28.8677H113.277V11.6717H115.605V26.9117Z" fill="#060606"/>
<path fill-rule="evenodd" clip-rule="evenodd" d="M12.14 0L1.85 10.29C0.66 11.48 0 13.09 0 14.77C0 16.45 0.66 18.06 1.84 19.25L2.49 18.6C2.71 18.38 2.93 18.16 3.14 17.95C2.3 17.11 1.84 15.97 1.84 14.78C1.84 13.59 2.3 12.45 3.15 11.61L11.21 3.55V4.24C11.22 5.75 11.22 7.26 11.12 8.77C11.04 10.04 10.87 11.31 10.44 12.51C10.06 13.56 9.5 14.51 8.85 15.4C8.72 15.58 8.59 15.75 8.45 15.92C7.19 17.52 5.75 18.97 4.31 20.41L1.85 22.87L1.79 22.93L1.73 22.99L1.66 23.06L1.62 23.1C0.57 24.26 0 25.77 0 27.34C0 29.02 0.66 30.63 1.85 31.82L12.14 42.11L22.43 31.82C23.62 30.63 24.28 29.02 24.28 27.34C24.28 25.66 23.62 24.05 22.43 22.86L20.63 21.06L22.44 19.26C23.63 18.07 24.29 16.46 24.29 14.78C24.29 13.1 23.63 11.49 22.44 10.3L12.14 0ZM11.21 38.57L3.15 30.51C2.31 29.67 1.84 28.53 1.84 27.34C1.84 26.15 2.3 25.01 3.15 24.17L4.95 22.37L5.15 22.57C6.3 23.74 7.43 24.92 8.45 26.21C9.27 27.25 9.98 28.36 10.43 29.62C10.86 30.82 11.03 32.09 11.12 33.36C11.22 34.87 11.22 36.38 11.21 37.89V38.57ZM16.23 19.21C16.43 19 16.64 18.8 16.85 18.59L17.54 17.9C16.94 17.25 16.36 16.59 15.82 15.89C15 14.85 14.29 13.74 13.84 12.48C13.41 11.28 13.24 10.01 13.16 8.74C13.06 7.23 13.06 5.72 13.07 4.21V3.52L21.13 11.58C21.97 12.42 22.44 13.56 22.44 14.75C22.44 15.94 21.98 17.08 21.13 17.92L18.67 20.38C18.39 20.66 18.1 20.95 17.82 21.23C16.61 22.45 15.43 23.7 14.36 25.05C13.59 26.03 12.91 27.07 12.4 28.21L12.14 28.8L11.88 28.21C11.38 27.07 10.69 26.03 9.92 25.05C8.86 23.7 7.67 22.45 6.46 21.23L6.26 21.03L6.46 20.83C7.67 19.61 8.85 18.36 9.92 17.01C10.69 16.03 11.37 14.99 11.88 13.85L12.14 13.26L12.4 13.85C12.9 14.99 13.59 16.03 14.36 17.01C14.95 17.78 15.58 18.51 16.23 19.21ZM13.06 37.88C13.05 36.37 13.05 34.86 13.15 33.35C13.23 32.08 13.4 30.81 13.83 29.61C14.28 28.35 14.99 27.25 15.81 26.2C16.82 24.91 17.95 23.72 19.1 22.56L19.3 22.36L21.1 24.16C21.94 25 22.41 26.14 22.41 27.33C22.41 28.52 21.95 29.66 21.1 30.5L13.04 38.56L13.06 37.88Z" fill="#8B8B8B"/>
</svg>
