<svg width="140" height="140" viewBox="0 0 140 140" fill="none" xmlns="http://www.w3.org/2000/svg">
<rect width="140" height="140" fill="#F8F8F8"/>
<path d="M98.6666 60.5996H42.2667C38.8057 60.5996 36 63.4053 36 66.8663V110.733C36 114.194 38.8057 117 42.2667 117H98.6666C102.128 117 104.933 114.194 104.933 110.733V66.8663C104.933 63.4053 102.128 60.5996 98.6666 60.5996Z" stroke="#060606" stroke-width="2" stroke-linecap="round" stroke-linejoin="round"/>
<path d="M48.5334 60.5999V44.9333C48.5334 39.1162 50.8443 33.5374 54.9576 29.4241C59.0708 25.3108 64.6497 23 70.4667 23C76.2838 23 81.8626 25.3108 85.9759 29.4241C90.0892 33.5374 92.4 39.1162 92.4 44.9333V60.5999" stroke="#060606" stroke-width="2" stroke-linecap="round" stroke-linejoin="round"/>
<circle cx="70.798" cy="81.2978" r="4.0673" fill="#060606"/>
</svg>
