<svg width="124" height="20" viewBox="0 0 124 20" fill="none" xmlns="http://www.w3.org/2000/svg">
<path d="M10 0L12.8953 6.86468L20 7.63915L14.686 12.657L16.1804 20L10 16.2349L3.81957 20L5.31404 12.657L0 7.63915L7.10468 6.86468L10 0Z" fill="#FFD43A"/>
<path d="M36 0L38.8953 6.86468L46 7.63915L40.686 12.657L42.1804 20L36 16.2349L29.8196 20L31.314 12.657L26 7.63915L33.1047 6.86468L36 0Z" fill="#FFD43A"/>
<path d="M62 0L64.8953 6.86468L72 7.63915L66.686 12.657L68.1804 20L62 16.2349L55.8196 20L57.314 12.657L52 7.63915L59.1047 6.86468L62 0Z" fill="#FFD43A"/>
<path d="M88 0L90.8953 6.86468L98 7.63915L92.686 12.657L94.1804 20L88 16.2349L81.8196 20L83.314 12.657L78 7.63915L85.1047 6.86468L88 0Z" fill="#FFD43A"/>
<path d="M114 0L116.895 6.86468L124 7.63915L118.686 12.657L120.18 20L114 16.2349L107.82 20L109.314 12.657L104 7.63915L111.105 6.86468L114 0Z" fill="#FFD43A"/>
</svg>
