<svg width="256" height="256" viewBox="0 0 256 256" fill="none" xmlns="http://www.w3.org/2000/svg">
<path fill-rule="evenodd" clip-rule="evenodd" d="M127.97 0L66.9675 62.5562C59.9127 69.7905 56 79.5783 56 89.7915C56 100.005 59.9127 109.792 66.9082 117.027L70.7616 113.075C72.0659 111.738 73.3701 110.4 74.6151 109.124C69.6352 104.017 66.9082 97.0867 66.9082 89.8523C66.9082 82.6179 69.6352 75.6875 74.6744 70.5809L122.457 21.5816V25.7763C122.516 34.9561 122.516 44.1358 121.923 53.3156C121.449 61.0363 120.441 68.7571 117.892 76.0522C115.639 82.4355 112.319 88.2109 108.466 93.6215C107.695 94.7157 106.925 95.7492 106.095 96.7827C98.6249 106.51 90.0881 115.325 81.5513 124.079L66.9675 139.034L66.6118 139.399L66.2561 139.763L65.8411 140.189L65.604 140.432C59.3792 147.484 56 156.664 56 166.209C56 176.422 59.9127 186.209 66.9675 193.444L127.97 256L188.973 193.444C196.028 186.209 199.941 176.422 199.941 166.209C199.941 155.995 196.028 146.208 188.973 138.973L178.302 128.03L189.033 117.088C196.087 109.853 200 100.066 200 89.8523C200 79.639 196.087 69.8513 189.033 62.617L127.97 0ZM122.457 234.479L74.6744 185.48C69.6945 180.373 66.9082 173.443 66.9082 166.209C66.9082 158.974 69.6352 152.044 74.6744 146.937L85.3454 135.994L86.5311 137.21C93.3487 144.323 100.048 151.497 106.095 159.339C110.956 165.661 115.165 172.409 117.833 180.069C120.382 187.365 121.39 195.085 121.923 202.806C122.516 211.986 122.516 221.166 122.457 230.345V234.479ZM152.217 116.784C153.403 115.507 154.648 114.291 155.893 113.014L159.984 108.82C156.427 104.868 152.988 100.856 149.787 96.6003C144.925 90.2778 140.716 83.5298 138.049 75.8699C135.499 68.5747 134.492 60.854 134.017 53.1332C133.424 43.9535 133.424 34.7737 133.484 25.5939V21.3992L181.266 70.3985C186.246 75.5051 189.033 82.4355 189.033 89.6699C189.033 96.9043 186.305 103.835 181.266 108.941L166.683 123.896C165.023 125.599 163.303 127.362 161.643 129.064C154.47 136.481 147.475 144.08 141.131 152.287C136.566 158.245 132.535 164.567 129.512 171.498L127.97 175.084L126.429 171.498C123.465 164.567 119.374 158.245 114.809 152.287C108.525 144.08 101.471 136.481 94.2972 129.064L93.1116 127.848L94.2972 126.632C101.471 119.215 108.466 111.616 114.809 103.409C119.374 97.4514 123.406 91.129 126.429 84.1985L127.97 80.6117L129.512 84.1985C132.476 91.129 136.566 97.4514 141.131 103.409C144.629 108.09 148.364 112.528 152.217 116.784ZM133.424 230.285C133.365 221.105 133.365 211.925 133.958 202.745C134.432 195.024 135.44 187.304 137.989 180.009C140.657 172.349 144.866 165.661 149.727 159.278C155.715 151.436 162.414 144.201 169.232 137.149L170.417 135.934L181.089 146.876C186.068 151.983 188.855 158.913 188.855 166.148C188.855 173.382 186.128 180.313 181.089 185.419L133.306 234.418L133.424 230.285Z" fill="#8B8B8B"/>
</svg>
